<svg xmlns="http://www.w3.org/2000/svg" viewBox="0 0 512 512" width="512" height="512">
  <path fill="#FF4500" d="M 0 256 C 0 114.6 114.6 0 256 0 S 512 114.6 512 256 s -114.6 256 -256 256 L 37.1 512 c -13.7 0 -20.5 -16.5 -10.9 -26.2 L 75 437 C 28.7 390.7 0 326.7 0 256 Z M 349.6 153.6 c 23.6 0 42.7 -19.1 42.7 -42.7 s -19.1 -42.7 -42.7 -42.7 c -20.6 0 -37.8 14.6 -41.8 34 c -34.5 3.7 -61.4 33 -61.4 68.4 l 0 0.2 c -37.5 1.6 -71.8 12.3 -99 29.1 c -10.1 -7.8 -22.8 -12.5 -36.5 -12.5 c -33 0 -59.8 26.8 -59.8 59.8 c 0 24 14.1 44.6 34.4 54.1 c 2 69.4 77.6 125.2 170.6 125.2 s 168.7 -55.9 170.6 -125.3 c 20.2 -9.6 34.1 -30.2 34.1 -54 c 0 -33 -26.8 -59.8 -59.8 -59.8 c -13.7 0 -26.3 4.6 -36.4 12.4 c -27.4 -17 -62.1 -27.7 -100 -29.1 l 0 -0.2 c 0 -25.4 18.9 -46.5 43.4 -49.9 l 0 0 c 4.4 18.8 21.3 32.8 41.5 32.8 Z M 177.1 246.9 c 16.7 0 29.5 17.6 28.5 39.3 s -13.5 29.6 -30.3 29.6 s -31.4 -8.8 -30.4 -30.5 s 15.4 -38.3 32.1 -38.3 Z m 190.1 38.3 c 1 21.7 -13.7 30.5 -30.4 30.5 s -29.3 -7.9 -30.3 -29.6 c -1 -21.7 11.8 -39.3 28.5 -39.3 s 31.2 16.6 32.1 38.3 Z m -48.1 56.7 c -10.3 24.6 -34.6 41.9 -63 41.9 s -52.7 -17.3 -63 -41.9 c -1.2 -2.9 0.8 -6.2 3.9 -6.5 c 18.4 -1.9 38.3 -2.9 59.1 -2.9 s 40.7 1 59.1 2.9 c 3.1 0.3 5.1 3.6 3.9 6.5 Z"/>
</svg>
